<svg width="90" height="16" viewBox="0 0 90 16" fill="none" xmlns="http://www.w3.org/2000/svg">
<path d="M39.9478 15.5432L44.1662 0H51.7157L55.9352 15.5432H51.7157L50.9386 12.4348H44.9433L44.1662 15.5432H39.9478ZM45.8317 8.88115H50.0512L48.7186 3.77427H47.8534H47.1644L45.8317 8.88115Z" fill="white"></path>
<path d="M0.393433 9.33902V0.0126953H4.50158V9.22773C4.50158 10.1606 4.75997 10.8932 5.27869 11.4255C5.79645 11.9588 6.50001 12.2249 7.38842 12.2249C8.27683 12.2249 8.97942 11.9588 9.49814 11.4255C10.0159 10.8923 10.2753 10.1597 10.2753 9.22773V0.0126953H14.3834V9.33902C14.3834 11.352 13.7544 12.9662 12.4963 14.1798C11.2382 15.3933 9.53491 16.0001 7.38938 16.0001C5.24289 16.0001 3.5406 15.3933 2.28251 14.1798C1.02248 12.9652 0.393433 11.352 0.393433 9.33902Z" fill="white"></path>
<path d="M18.4474 15.5559V0.0126953H24.2211L27.7011 8.59674L31.2151 0.0126953H36.9887V15.5559H32.8806L32.9919 4.67537L29.9938 12.431H25.4424L22.4694 4.67537L22.5565 15.5559H18.4474Z" fill="white"></path>
<path d="M58.8716 15.5559V0.0126953H62.9797V15.5559H58.8716Z" fill="white"></path>
<path d="M67.0415 15.5559V0.0126953H72.0381L77.4778 9.78322L77.3666 0.0126953H81.4747V15.5559H76.4791L71.0393 5.7854L71.1506 15.5559H67.0415Z" fill="white"></path>
<path d="M89.6065 0.0136719H85.5419V4.07827H89.6065V0.0136719Z" fill="white"></path>
</svg>
